<?xml version="1.0" encoding="UTF-8" standalone="no"?>
<!-- Created with Inkscape (http://www.inkscape.org/) -->

<svg
   width="106.89916mm"
   height="107.65176mm"
   viewBox="0 0 106.89916 107.65176"
   version="1.1"
   id="svg1"
   xml:space="preserve"
   inkscape:version="1.4.2 (f4327f4, 2025-05-13)"
   sodipodi:docname="LogoRoomie_Estrella.svg"
   xmlns:inkscape="http://www.inkscape.org/namespaces/inkscape"
   xmlns:sodipodi="http://sodipodi.sourceforge.net/DTD/sodipodi-0.dtd"
   xmlns="http://www.w3.org/2000/svg"
   xmlns:svg="http://www.w3.org/2000/svg"><sodipodi:namedview
     id="namedview1"
     pagecolor="#ffffff"
     bordercolor="#000000"
     borderopacity="0.25"
     inkscape:showpageshadow="2"
     inkscape:pageopacity="0.0"
     inkscape:pagecheckerboard="0"
     inkscape:deskcolor="#d1d1d1"
     inkscape:document-units="mm"
     inkscape:zoom="0.24346724"
     inkscape:cx="-289.56668"
     inkscape:cy="18.482979"
     inkscape:window-width="1920"
     inkscape:window-height="991"
     inkscape:window-x="-9"
     inkscape:window-y="-9"
     inkscape:window-maximized="1"
     inkscape:current-layer="layer1" /><defs
     id="defs1" /><g
     inkscape:label="Capa 1"
     inkscape:groupmode="layer"
     id="layer1"
     transform="translate(-197.35931,-40)"><path
       style="fill:#000000"
       d="m 249.27943,146.43509 c -0.3796,-1.02102 -2.92047,-10.17948 -5.64636,-20.35216 -5.99279,-22.36425 -2.95423,-19.32629 -25.56506,-25.56004 -10.38906,-2.864226 -19.39114,-5.380056 -20.00462,-5.590716 -2.00825,-0.68962 0.25554,-1.92386 7.10058,-3.87131 3.6342,-1.03395 11.0348,-3.14796 16.44577,-4.6978 5.41096,-1.54985 11.1639,-3.1768 12.7843,-3.61545 3.41481,-0.92441 4.51444,-2.67218 6.40756,-10.18431 0.70908,-2.8137 2.20216,-8.48046 3.31797,-12.5928 1.1158,-4.11233 2.65518,-9.80905 3.42085,-12.659362 2.66633,-9.925814 3.25486,-9.844504 6.17849,0.853611 1.99176,7.288211 2.52592,9.221201 4.34988,15.741001 0.66606,2.38083 1.91584,6.94454 2.7773,10.14157 2.19019,8.12819 1.12784,7.58096 29.237,15.06026 15.0058,3.99277 14.1669,3.72055 14.1669,4.59721 0,0.92825 -1.46258,1.51207 -8.26403,3.29877 -3.03014,0.796 -8.87399,2.38316 -12.98632,3.527006 -12.1664,3.38412 -12.84673,3.56931 -16.13453,4.39172 -4.03914,1.01035 -4.10797,1.09268 -5.55312,6.64228 -1.93733,7.43961 -4.23112,15.92101 -6.37436,23.56949 -1.0917,3.89591 -2.16925,8.04606 -2.39454,9.22255 -0.62286,3.25255 -2.40515,4.38762 -3.26366,2.07848 z"
       id="path3"
       inkscape:label="Estrella" /></g></svg>
