<?xml version="1.0" encoding="UTF-8" standalone="no"?>
<!-- Created with Inkscape (http://www.inkscape.org/) -->

<svg
   width="398.44431mm"
   height="419.99973mm"
   viewBox="0 0 398.44431 419.99973"
   version="1.1"
   id="svg1"
   xml:space="preserve"
   inkscape:version="1.4.2 (f4327f4, 2025-05-13)"
   sodipodi:docname="LogoRoomie.svg"
   xmlns:inkscape="http://www.inkscape.org/namespaces/inkscape"
   xmlns:sodipodi="http://sodipodi.sourceforge.net/DTD/sodipodi-0.dtd"
   xmlns="http://www.w3.org/2000/svg"
   xmlns:svg="http://www.w3.org/2000/svg"><sodipodi:namedview
     id="namedview1"
     pagecolor="#ffffff"
     bordercolor="#000000"
     borderopacity="0.25"
     inkscape:showpageshadow="2"
     inkscape:pageopacity="0.0"
     inkscape:pagecheckerboard="0"
     inkscape:deskcolor="#d1d1d1"
     inkscape:document-units="mm"
     inkscape:zoom="0.24346724"
     inkscape:cx="305.99599"
     inkscape:cy="429.21586"
     inkscape:window-width="1920"
     inkscape:window-height="991"
     inkscape:window-x="-9"
     inkscape:window-y="-9"
     inkscape:window-maximized="1"
     inkscape:current-layer="layer1" /><defs
     id="defs1" /><g
     inkscape:label="Capa 1"
     inkscape:groupmode="layer"
     id="layer1"
     transform="translate(-50.77785,-40)"><path
       style="fill:#000000"
       d="m 249.27943,146.43509 c -0.3796,-1.02102 -2.92047,-10.17948 -5.64636,-20.35216 -5.99279,-22.36425 -2.95423,-19.32629 -25.56506,-25.56004 -10.38906,-2.864226 -19.39114,-5.380056 -20.00462,-5.590716 -2.00825,-0.68962 0.25554,-1.92386 7.10058,-3.87131 3.6342,-1.03395 11.0348,-3.14796 16.44577,-4.6978 5.41096,-1.54985 11.1639,-3.1768 12.7843,-3.61545 3.41481,-0.92441 4.51444,-2.67218 6.40756,-10.18431 0.70908,-2.8137 2.20216,-8.48046 3.31797,-12.5928 1.1158,-4.11233 2.65518,-9.80905 3.42085,-12.659362 2.66633,-9.925814 3.25486,-9.844504 6.17849,0.853611 1.99176,7.288211 2.52592,9.221201 4.34988,15.741001 0.66606,2.38083 1.91584,6.94454 2.7773,10.14157 2.19019,8.12819 1.12784,7.58096 29.237,15.06026 15.0058,3.99277 14.1669,3.72055 14.1669,4.59721 0,0.92825 -1.46258,1.51207 -8.26403,3.29877 -3.03014,0.796 -8.87399,2.38316 -12.98632,3.527006 -12.1664,3.38412 -12.84673,3.56931 -16.13453,4.39172 -4.03914,1.01035 -4.10797,1.09268 -5.55312,6.64228 -1.93733,7.43961 -4.23112,15.92101 -6.37436,23.56949 -1.0917,3.89591 -2.16925,8.04606 -2.39454,9.22255 -0.62286,3.25255 -2.40515,4.38762 -3.26366,2.07848 z"
       id="path3"
       inkscape:label="Estrella" /><path
       style="fill:#000000"
       d="m 308.57876,358.35624 c -28.45766,-7.50009 -22.66429,-51.25172 6.7865,-51.25172 34.16769,0 35.98964,50.26901 1.87105,51.62396 -3.46302,0.13753 -7.35892,-0.03 -8.65755,-0.37224 z"
       id="path2"
       inkscape:label="Circulo" /><path
       style="fill:#000000"
       d="m 65.011322,339.17029 c 15.900666,-27.58327 31.997329,-55.17382 47.791838,-82.8305 14.56044,-25.49578 38.4935,-66.92989 45.57229,-79.88558 13.57075,-24.83734 16.98583,-28.24827 27.41662,-27.38326 8.71681,0.72286 8.08659,-0.14738 44.28815,61.15508 23.05488,39.04035 18.55623,39.80096 45.61592,-7.71259 1.08227,-1.90034 4.88126,-8.27544 8.44219,-14.1669 3.56093,-5.89146 8.89357,-14.96182 11.8503,-20.15635 9.9189,-17.42598 11.92548,-19.44866 20.62604,-19.26544 14.90021,0.31378 7.94386,-4.17555 44.11246,59.01147 7.80511,13.63564 15.93884,27.80254 18.07495,31.482 3.83473,6.60536 5.32581,9.23969 10.46884,18.49567 1.44315,2.59727 5.68939,9.8578 9.43609,16.13453 3.7467,6.27672 10.93716,18.73439 15.9788,27.68371 5.04164,8.94931 11.58674,20.28283 14.54466,25.1856 21.83593,36.19309 22.65868,32.92119 -8.27562,32.91048 -33.93757,-0.0118 -29.51928,1.47367 -37.43073,-12.58414 -5.07034,-9.00944 -11.49656,-20.51561 -28.10881,-54.03529 -25.79322,-52.04476 -28.8342,-75.83496 -49.43318,-46.74567 -3.74572,6.29793 -10.34414,16.38184 -18.01736,30.26584 -22.08398,39.95897 -22.10575,49.92736 -43.65808,48.03013 -19.09332,-1.68077 -38.10381,-68.14937 -53.48461,-84.89904 -4.35889,-4.74682 -7.8439,-4.02583 -11.78178,-3.0508 -2.63545,0.65254 -3.866,2.95362 -6.02141,5.48503 -8.37526,9.83628 -20.80627,44.84643 -38.55084,75.49976 -24.446,42.22989 -18.95818,40.15797 -34.38348,42.20827 0,0 -52.395564,9.21743 -35.073248,-20.83201 z"
       id="path1"
       inkscape:label="M"
       sodipodi:nodetypes="sssssssssssssssssscsssasscs" /><text
       xml:space="preserve"
       style="font-size:3.175px;text-align:start;writing-mode:lr-tb;direction:ltr;text-anchor:start;fill:#000000;fill-opacity:0.992157;stroke-width:0.264583"
       x="46.456348"
       y="457.53046"
       id="text1"
       inkscape:label="Roomie"><tspan
         sodipodi:role="line"
         id="tspan1"
         style="font-style:normal;font-variant:normal;font-weight:bold;font-stretch:normal;font-size:123.472px;font-family:Fredoka;-inkscape-font-specification:'Fredoka, Bold';font-variant-ligatures:normal;font-variant-caps:normal;font-variant-numeric:normal;font-variant-east-asian:normal;fill:#000000;fill-opacity:0.992157;stroke-width:0.264583"
         x="46.456348"
         y="457.53046">Roomie</tspan></text></g></svg>
