<?xml version="1.0" encoding="UTF-8" standalone="no"?>
<!-- Created with Inkscape (http://www.inkscape.org/) -->

<svg
   width="383.48093mm"
   height="212.42072mm"
   viewBox="0 0 383.48093 212.42072"
   version="1.1"
   id="svg1"
   xml:space="preserve"
   inkscape:version="1.4.2 (f4327f4, 2025-05-13)"
   sodipodi:docname="LogoRoomie_M.svg"
   xmlns:inkscape="http://www.inkscape.org/namespaces/inkscape"
   xmlns:sodipodi="http://sodipodi.sourceforge.net/DTD/sodipodi-0.dtd"
   xmlns="http://www.w3.org/2000/svg"
   xmlns:svg="http://www.w3.org/2000/svg"><sodipodi:namedview
     id="namedview1"
     pagecolor="#ffffff"
     bordercolor="#000000"
     borderopacity="0.25"
     inkscape:showpageshadow="2"
     inkscape:pageopacity="0.0"
     inkscape:pagecheckerboard="0"
     inkscape:deskcolor="#d1d1d1"
     inkscape:document-units="mm"
     inkscape:zoom="0.24346724"
     inkscape:cx="264.92271"
     inkscape:cy="18.482979"
     inkscape:window-width="1920"
     inkscape:window-height="991"
     inkscape:window-x="-9"
     inkscape:window-y="-9"
     inkscape:window-maximized="1"
     inkscape:current-layer="layer1" /><defs
     id="defs1" /><g
     inkscape:label="Capa 1"
     inkscape:groupmode="layer"
     id="layer1"
     transform="translate(-61.49974,-148.91414)"><path
       style="fill:#000000"
       d="m 65.011322,339.17029 c 15.900666,-27.58327 31.997329,-55.17382 47.791838,-82.8305 14.56044,-25.49578 38.4935,-66.92989 45.57229,-79.88558 13.57075,-24.83734 16.98583,-28.24827 27.41662,-27.38326 8.71681,0.72286 8.08659,-0.14738 44.28815,61.15508 23.05488,39.04035 18.55623,39.80096 45.61592,-7.71259 1.08227,-1.90034 4.88126,-8.27544 8.44219,-14.1669 3.56093,-5.89146 8.89357,-14.96182 11.8503,-20.15635 9.9189,-17.42598 11.92548,-19.44866 20.62604,-19.26544 14.90021,0.31378 7.94386,-4.17555 44.11246,59.01147 7.80511,13.63564 15.93884,27.80254 18.07495,31.482 3.83473,6.60536 5.32581,9.23969 10.46884,18.49567 1.44315,2.59727 5.68939,9.8578 9.43609,16.13453 3.7467,6.27672 10.93716,18.73439 15.9788,27.68371 5.04164,8.94931 11.58674,20.28283 14.54466,25.1856 21.83593,36.19309 22.65868,32.92119 -8.27562,32.91048 -33.93757,-0.0118 -29.51928,1.47367 -37.43073,-12.58414 -5.07034,-9.00944 -11.49656,-20.51561 -28.10881,-54.03529 -25.79322,-52.04476 -28.8342,-75.83496 -49.43318,-46.74567 -3.74572,6.29793 -10.34414,16.38184 -18.01736,30.26584 -22.08398,39.95897 -22.10575,49.92736 -43.65808,48.03013 -19.09332,-1.68077 -38.10381,-68.14937 -53.48461,-84.89904 -4.35889,-4.74682 -7.8439,-4.02583 -11.78178,-3.0508 -2.63545,0.65254 -3.866,2.95362 -6.02141,5.48503 -8.37526,9.83628 -20.80627,44.84643 -38.55084,75.49976 -24.446,42.22989 -18.95818,40.15797 -34.38348,42.20827 0,0 -52.395564,9.21743 -35.073248,-20.83201 z"
       id="path1"
       inkscape:label="M"
       sodipodi:nodetypes="sssssssssssssssssscsssasscs" /></g></svg>
